<?xml version="1.0"?>
<svg xmlns="http://www.w3.org/2000/svg" id="Outline" viewBox="0 0 512 512" width="512" height="512"><path d="M488,400h-9.441l-14.714-73.569A8,8,0,0,0,456,320H406.035L375.692,213.8A8,8,0,0,0,368,208H254.976L320,180.133V200a8,8,0,0,0,11.578,7.155l128-64a8,8,0,0,0,0-14.31l-128-64A8,8,0,0,0,320,72V91.867L219.151,48.646A8,8,0,0,0,208,56V83.056L107.578,32.845A8,8,0,0,0,96,40v72H24a8,8,0,0,0-8,8v32a8,8,0,0,0,8,8H96v72a8,8,0,0,0,11.578,7.155l25.067-12.533L105.965,320H56a8,8,0,0,0-7.845,6.431L33.441,400H24a8,8,0,0,0-8,8v32a8,8,0,0,0,8,8H69.414a55.983,55.983,0,0,0,101.172,0H341.414a55.983,55.983,0,0,0,101.172,0H488a8,8,0,0,0,8-8V408A8,8,0,0,0,488,400ZM96,144H32V128H96Zm265.966,80,27.428,96H224V224ZM324.849,111.354A8,8,0,0,0,336,104V84.944L438.111,136,336,187.056V168a8,8,0,0,0-11.151-7.354l-88.533,37.943,61.708-98.732ZM64.581,432H32V416H64.581a55.368,55.368,0,0,0,0,16ZM120,464a40,40,0,1,1,40-40A40.045,40.045,0,0,1,120,464Zm88-32H175.419a55.368,55.368,0,0,0,0-16H208Zm0-32H170.586a55.983,55.983,0,0,0-101.172,0H49.759l12.8-64H208Zm0-80H122.606l27.428-96H208Zm0-112H169.889L208,188.944Zm12.206-38.806a8,8,0,0,0-7.784-.349L112,219.056V52.944l100.422,50.211A8,8,0,0,0,224,96V68.133l59.141,25.346L224,188.105V176A8,8,0,0,0,220.206,169.194ZM336.581,432H224V416H336.581a55.368,55.368,0,0,0,0,16ZM392,464a40,40,0,1,1,40-40A40.045,40.045,0,0,1,392,464Zm0-96a56.068,56.068,0,0,0-50.586,32H224V336H449.441l12.8,64H442.586A56.068,56.068,0,0,0,392,368Zm88,64H447.419a55.368,55.368,0,0,0,0-16H480Z"/><path d="M264,352H248a8,8,0,0,0,0,16h16a8,8,0,0,0,0-16Z"/><circle cx="392" cy="424" r="16"/><circle cx="120" cy="424" r="16"/></svg>
